<?xml version="1.0" encoding="UTF-8"?>
<svg width="68px" height="68px" viewBox="0 0 68 68" version="1.1" xmlns="http://www.w3.org/2000/svg" xmlns:xlink="http://www.w3.org/1999/xlink">
    <!-- Generator: Sketch 52.2 (67145) - http://www.bohemiancoding.com/sketch -->
    <title>提醒@2x</title>
    <desc>Created with Sketch.</desc>
    <g id="空白页" stroke="none" stroke-width="1" fill="none" fill-rule="evenodd">
        <g id="免费用户试用提醒" transform="translate(-173.000000, -161.000000)">
            <g id="Group-4" transform="translate(47.000000, 160.000000)">
                <g id="提醒" transform="translate(125.000000, 0.000000)">
                    <rect id="Rectangle" fill="#000000" opacity="0" x="0" y="0" width="70" height="70"></rect>
                    <path d="M35.3115,68.6 C16.78985,68.6 1.7213,53.53145 1.7213,35.0098 C1.7213,16.4878 16.78985,1.41925 35.3115,1.41925 C53.83315,1.41925 68.90205,16.4878 68.90205,35.0098 C68.90135,53.53145 53.83315,68.6 35.3115,68.6 Z" id="Path" fill="#FFFFFF"></path>
                    <path d="M35.3115,68.6 C16.78985,68.6 1.7213,53.53145 1.7213,35.0098 C1.7213,16.4878 16.78985,1.41925 35.3115,1.41925 C53.83315,1.41925 68.90205,16.4878 68.90205,35.0098 C68.90135,53.53145 53.83315,68.6 35.3115,68.6 Z M35.3115,4.10935 C18.2728,4.10935 4.4107,17.9711 4.4107,35.01015 C4.4107,52.0492 18.2728,65.91095 35.3115,65.91095 C52.35055,65.91095 66.21265,52.0492 66.21265,35.01015 C66.21265,17.9711 52.3502,4.10935 35.3115,4.10935 Z M33.41065,44.83115 L32.77645,14.83895 L37.84585,14.83895 L37.42375,44.83115 L33.41065,44.83115 Z M32.9882,50.323 L37.6348,50.323 L37.6348,55.181 L32.9882,55.181 L32.9882,50.323 Z" id="Shape" fill="#55A8FD" fill-rule="nonzero"></path>
                </g>
            </g>
        </g>
    </g>
</svg>