<?xml version="1.0" encoding="UTF-8"?>
<svg width="26px" height="26px" viewBox="0 0 26 26" version="1.1" xmlns="http://www.w3.org/2000/svg" xmlns:xlink="http://www.w3.org/1999/xlink">
    <!-- Generator: Sketch 52.5 (67469) - http://www.bohemiancoding.com/sketch -->
    <title>计划统计@2x</title>
    <desc>Created with Sketch.</desc>
    <g id="钉钉调整页面" stroke="none" stroke-width="1" fill="none" fill-rule="evenodd">
        <g id="日程-领取权益2" transform="translate(-65.000000, -574.000000)">
            <g id="计划统计" transform="translate(64.000000, 573.000000)">
                <rect id="Rectangle" fill="#000000" opacity="0" x="0" y="0" width="28" height="28"></rect>
                <path d="M26.3164514,23.2347189 C26.3164514,24.9298655 25.0881962,26.318592 23.3918743,26.318592 L4.64836241,26.318592 C2.95206849,26.318592 1.71326441,24.9298655 1.71326441,23.2347189 L1.71326441,4.78349679 C1.71326441,3.08781845 2.95209649,1.71778335 4.64836241,1.71778335 L23.3918743,1.71778335 C25.0881962,1.71778335 26.3205367,2.95076739 26.3205367,4.6464737 L26.3164514,23.2347189 Z M24.9811968,4.78780586 C24.985254,3.94375814 24.1060341,3.00924772 23.2504862,3.05712326 C22.7809086,3.05712326 5.22412805,3.05712326 4.7897226,3.05712326 C3.96072865,3.05712326 3.06018724,3.90687913 3.05904,4.78780586 C3.05904,4.78780586 3.06192206,22.6855632 3.06192206,23.1291184 C2.99384422,23.9702841 3.9422612,24.9803993 4.7897226,24.979308 L23.2504862,24.979308 C24.0853002,24.979308 24.9811968,24.0833555 24.9811968,23.2485694 L24.9811968,4.78780586 Z M21.1853463,21.1602613 L21.1853463,22.8042307 C21.1853463,23.1275515 20.8618017,23.3899576 20.4632119,23.3899576 C20.0645662,23.3899576 19.7411335,23.1275515 19.7411335,22.8042307 L19.7411335,20.9643941 C18.792073,20.7234775 17.9104187,19.7946752 17.9104187,18.7040866 C17.9104187,17.6134141 18.7501014,16.6944052 19.7411335,16.4437232 L19.7411335,5.23217259 C19.7411335,4.9088518 20.0645662,4.64641773 20.4632119,4.64641773 C20.8618017,4.64641773 21.1853463,4.90882383 21.1853463,5.23217259 L21.1853463,16.4436952 C22.1496565,16.7363488 23.0159492,17.6134141 23.0159492,18.7040587 C23.0159492,19.7946752 22.107685,20.8493641 21.1853463,21.0483092 L21.1853463,21.1602613 Z M20.4632119,17.5745764 C19.839179,17.5745764 19.3337018,18.0799978 19.3337018,18.7040587 C19.3337018,19.3281195 19.839179,19.8335968 20.4632119,19.8335968 C21.0872449,19.8335968 21.5927221,19.3281196 21.5927221,18.7040587 C21.5927221,18.0799977 21.0872449,17.5745764 20.4632119,17.5745764 Z M8.31407306,21.2442044 L8.31407306,22.8881738 C8.31407306,23.2114946 7.99052841,23.4739007 7.59193868,23.4739007 C7.19329297,23.4739007 6.86986024,23.2114946 6.86986024,22.8881738 L6.86986024,21.0483372 C5.92079969,20.8074206 5.03914545,19.8786183 5.03914545,18.7880297 C5.03914545,17.6973572 5.87882816,16.7783483 6.86986024,16.5276663 L6.86986024,5.31611568 C6.86986024,4.9927949 7.19329294,4.73036082 7.59193868,4.73036082 C7.99052844,4.73036082 8.31407306,4.99276693 8.31407306,5.31611568 L8.31407306,16.5276383 C9.27838327,16.8202919 10.1446759,17.6973572 10.1446759,18.7880017 C10.1446759,19.8786183 9.23641171,20.9333072 8.31407306,21.1322523 L8.31407306,21.2442044 Z M7.59193868,17.6585195 C6.96790577,17.6585195 6.46242849,18.1639408 6.46242849,18.7880017 C6.46242849,19.4120626 6.96790577,19.9175399 7.59193868,19.9175399 C8.21597159,19.9175399 8.72144886,19.4120626 8.72144886,18.7880017 C8.72144886,18.1639408 8.21597156,17.6585195 7.59193868,17.6585195 Z M13.3054129,6.96005707 L13.3054129,5.31608768 C13.3054129,4.9927669 13.6289576,4.7303608 14.0275473,4.7303608 C14.426193,4.7303608 14.7496258,4.9927669 14.7496258,5.31608768 L14.7496258,7.15592426 C15.6986863,7.39684091 16.5803405,8.32564318 16.5803405,9.41623178 C16.5803405,10.5069043 15.7406578,11.4259132 14.7496258,11.6765952 L14.7496258,22.8881178 C14.7496258,23.2114386 14.4261931,23.4738727 14.0275473,23.4738727 C13.6289576,23.4738727 13.3054129,23.2114386 13.3054129,22.8881178 L13.3054129,11.6766232 C12.3411027,11.3839697 11.4748101,10.5069043 11.4748101,9.41625978 C11.4748101,8.32564321 12.3830743,7.2709543 13.3054129,7.07200919 L13.3054129,6.96005707 Z M14.0275194,10.545742 C14.6515523,10.545742 15.1570295,10.0403207 15.1570295,9.41625978 C15.1570295,8.7921989 14.6515523,8.2867216 14.0275194,8.2867216 C13.4034864,8.2867216 12.8980092,8.79219887 12.8980092,9.41625978 C12.8980092,10.0403207 13.4034864,10.545742 14.0275194,10.545742 Z" id="Shape" fill="#FFFFFF" fill-rule="nonzero"></path>
            </g>
        </g>
    </g>
</svg>