<?xml version="1.0" encoding="UTF-8"?>
<svg width="10px" height="16px" viewBox="0 0 10 16" version="1.1" xmlns="http://www.w3.org/2000/svg" xmlns:xlink="http://www.w3.org/1999/xlink">
    <!-- Generator: Sketch 52.2 (67145) - http://www.bohemiancoding.com/sketch -->
    <title>电话@2x</title>
    <desc>Created with Sketch.</desc>
    <g id="空白页" stroke="none" stroke-width="1" fill="none" fill-rule="evenodd">
        <g id="免费用户试用提醒" transform="translate(-151.000000, -688.000000)" fill="#55A8FD" fill-rule="nonzero">
            <g id="Group" transform="translate(109.000000, 546.000000)">
                <g id="Group-3" transform="translate(38.000000, 140.000000)">
                    <g id="电话" transform="translate(9.043639, 10.043639) rotate(21.000000) translate(-9.043639, -10.043639) translate(2.043639, 3.043639)">
                        <path d="M13.72,11.096 C13.72,10.84 13.592,10.648 13.464,10.456 C13.4,10.392 13.336,10.392 13.336,10.328 L10.84,8.408 C10.712,8.28 10.456,8.152 10.2,8.152 C10.008,8.152 9.816,8.216 9.688,8.344 L8.984,9.048 C8.856,9.176 8.728,9.24 8.536,9.24 C8.344,9.24 8.152,9.112 8.024,8.984 C7.064,8.28 6.232,7.448 5.528,6.488 C5.4,6.36 5.272,6.168 5.272,5.976 C5.272,5.784 5.336,5.656 5.464,5.528 L6.168,4.824 C6.296,4.696 6.36,4.504 6.36,4.312 C6.36,4.056 6.232,3.864 6.104,3.672 L4.12,1.24 C4.12,1.176 4.056,1.112 3.992,1.048 C3.864,0.92 3.608,0.792 3.416,0.792 C2.2,0.792 0.728,2.2 0.728,3.928 C0.728,4.376 0.856,4.824 1.048,5.272 C2.84,8.792 5.784,11.736 9.304,13.528 C9.688,13.72 10.136,13.848 10.648,13.848 C12.312,13.784 13.72,12.312 13.72,11.096 C13.72,11.096 13.72,11.096 13.72,11.096 Z M10.584,13.144 C10.2,13.144 9.88,13.08 9.496,12.888 C9.496,12.888 9.432,12.888 9.368,12.824 C6.04,11.096 3.224,8.344 1.56,5.016 C1.56,4.952 1.56,4.952 1.496,4.888 C1.432,4.632 1.304,4.248 1.304,3.928 C1.304,2.52 2.584,1.432 3.352,1.432 C3.48,1.432 3.544,1.496 3.544,1.496 C3.544,1.496 3.544,1.496 3.608,1.56 C3.608,1.56 3.608,1.624 3.672,1.624 L5.592,4.12 C5.592,4.12 5.592,4.184 5.656,4.184 C5.72,4.248 5.72,4.312 5.72,4.376 C5.72,4.44 5.72,4.504 5.656,4.504 L5.016,5.144 C5.016,5.144 5.016,5.144 5.016,5.144 C4.76,5.336 4.632,5.656 4.632,5.976 C4.632,6.296 4.76,6.552 4.952,6.808 C4.952,6.808 4.952,6.808 4.952,6.872 C5.656,7.896 6.552,8.728 7.576,9.496 C7.576,9.496 7.576,9.496 7.576,9.496 C7.768,9.688 8.088,9.816 8.408,9.816 C8.728,9.816 8.984,9.688 9.24,9.496 C9.24,9.496 9.24,9.496 9.304,9.496 L9.944,8.856 C10.008,8.856 10.008,8.792 10.072,8.792 C10.2,8.792 10.264,8.856 10.264,8.856 C10.264,8.856 10.328,8.92 10.328,8.92 L12.824,10.84 C12.824,10.84 12.888,10.84 12.888,10.904 C12.888,10.904 12.952,10.968 12.952,10.968 C13.016,11.032 13.016,11.096 13.016,11.16 C13.016,11.16 13.016,11.224 13.016,11.224 C13.08,11.992 11.992,13.144 10.584,13.144 Z" id="Shape"></path>
                    </g>
                </g>
            </g>
        </g>
    </g>
</svg>