<?xml version="1.0" encoding="UTF-8"?>
<svg width="23px" height="23px" viewBox="0 0 23 23" version="1.1" xmlns="http://www.w3.org/2000/svg" xmlns:xlink="http://www.w3.org/1999/xlink">
    <!-- Generator: Sketch 52.5 (67469) - http://www.bohemiancoding.com/sketch -->
    <title>培训@2x</title>
    <desc>Created with Sketch.</desc>
    <g id="钉钉调整页面" stroke="none" stroke-width="1" fill="none" fill-rule="evenodd">
        <g id="日程-领取权益2" transform="translate(-324.000000, -576.000000)">
            <g id="培训" transform="translate(321.000000, 573.000000)">
                <rect id="Rectangle" fill="#000000" opacity="0" x="0" y="0" width="28" height="28"></rect>
                <path d="M8.95,9.636 C9.524,11.372 11.12,11.372 11.68,9.636 C11.862,9.538 12.058,9.244 12.086,9.006 C12.114,8.754 12.1,8.418 11.848,8.418 C11.792,7.606 11.344,6.92 10.336,6.92 C9.342,6.92 8.838,7.522 8.782,8.418 C8.53,8.418 8.502,8.754 8.544,9.006 C8.572,9.244 8.768,9.538 8.95,9.636 Z M12.632,19.002 C13.29,19.002 13.836,18.456 13.836,17.798 L13.836,17.756 L18.512,13.08 C18.638,12.954 18.638,12.744 18.512,12.618 C18.386,12.492 18.176,12.492 18.05,12.618 L13.822,16.832 L13.822,12.856 C13.822,11.988 13.192,11.246 12.31,11.05 L11.666,10.91 C11.106,12.016 9.524,12.016 8.978,10.91 L8.334,11.05 C7.452,11.232 6.822,11.988 6.822,12.856 L6.822,17.798 C6.822,18.456 7.354,19.002 8.026,19.002 C8.026,19.338 8.292,19.604 8.628,19.604 L12.03,19.604 C12.366,19.604 12.632,19.324 12.632,19.002 Z M5.002,18.498 C5.52,18.722 6.108,18.358 6.108,17.784 C6.108,17.532 5.954,17.322 5.716,17.238 C4.974,16.972 4.428,16.272 4.428,15.432 L4.428,6.346 C4.428,5.282 5.282,4.428 6.346,4.428 L22.306,4.428 C23.37,4.428 24.224,5.282 24.224,6.346 L24.224,15.432 C24.224,16.496 23.37,17.35 22.306,17.35 L15.95,17.35 C15.558,17.35 15.236,17.672 15.236,18.064 C15.236,18.456 15.558,18.778 15.95,18.778 L22.32,18.778 C24.168,18.778 25.666,17.28 25.666,15.432 L25.666,6.346 C25.666,4.498 24.168,3 22.32,3 L6.36,3 C4.512,3 3.014,4.498 3.014,6.346 L3.014,15.432 C3,16.804 3.826,17.98 5.002,18.498 Z M7.69,20.766 L5.184,20.766 C3.98,20.766 3,21.746 3,22.95 L3,25.834 L9.874,25.834 L9.874,22.95 C9.874,21.746 8.894,20.766 7.69,20.766 Z M15.614,20.766 L13.122,20.766 C11.918,20.766 10.938,21.746 10.938,22.95 L10.938,25.834 L17.812,25.834 L17.812,22.95 C17.798,21.746 16.818,20.766 15.614,20.766 Z M23.538,20.766 L21.046,20.766 C19.842,20.766 18.862,21.746 18.862,22.95 L18.862,25.834 L25.736,25.834 L25.736,22.95 C25.736,21.746 24.756,20.766 23.538,20.766 Z" id="Shape" fill="#FFFFFF" fill-rule="nonzero"></path>
            </g>
        </g>
    </g>
</svg>