<?xml version="1.0" encoding="UTF-8"?>
<svg width="26px" height="26px" viewBox="0 0 26 26" version="1.1" xmlns="http://www.w3.org/2000/svg" xmlns:xlink="http://www.w3.org/1999/xlink">
    <!-- Generator: Sketch 52.5 (67469) - http://www.bohemiancoding.com/sketch -->
    <title>410指南、指导-线性@2x</title>
    <desc>Created with Sketch.</desc>
    <g id="钉钉调整页面" stroke="none" stroke-width="1" fill="none" fill-rule="evenodd">
        <g id="日程-领取权益2" transform="translate(-194.000000, -574.000000)">
            <g id="410指南、指导-线性" transform="translate(193.000000, 573.000000)">
                <rect id="Rectangle" fill="#000000" opacity="0" x="0" y="0" width="28" height="28"></rect>
                <path d="M14,1.75 C7.240625,1.75 1.75,7.240625 1.75,14 C1.75,20.759375 7.240625,26.25 14,26.25 C20.759375,26.25 26.25,20.759375 26.25,14 C26.25,7.240625 20.759375,1.75 14,1.75 Z M14,24.5 C8.203125,24.5 3.5,19.796875 3.5,14 C3.5,8.203125 8.203125,3.5 14,3.5 C19.796875,3.5 24.5,8.203125 24.5,14 C24.5,19.796875 19.796875,24.5 14,24.5 Z M7,21 C7.196875,20.803125 16.734375,16.734375 16.734375,16.734375 C16.734375,16.734375 20.78125,7.196875 20.978125,7 C21.175,6.803125 11.24375,11.24375 11.24375,11.24375 C11.24375,11.24375 6.890625,21 7,21 Z M15.09375,15.378125 C14.371875,15.684375 10.696875,17.36875 10.565625,17.434375 C10.9375,16.625 12.096875,13.671875 12.490625,12.775 L15.09375,15.378125 Z" id="Shape" fill="#FFFFFF" fill-rule="nonzero"></path>
            </g>
        </g>
    </g>
</svg>