<?xml version="1.0" encoding="UTF-8"?>
<svg width="20px" height="20px" viewBox="0 0 20 20" version="1.1" xmlns="http://www.w3.org/2000/svg" xmlns:xlink="http://www.w3.org/1999/xlink">
    <!-- Generator: Sketch 52.2 (67145) - http://www.bohemiancoding.com/sketch -->
    <title>钻石@2x</title>
    <desc>Created with Sketch.</desc>
    <g id="计划" stroke="none" stroke-width="1" fill="none" fill-rule="evenodd">
        <g id="iPhone-8-Plus" transform="translate(-15.000000, -119.000000)">
            <g id="Group-14-Copy" transform="translate(0.000000, 100.000000)">
                <g id="Group" transform="translate(15.000000, 18.000000)">
                    <g id="钻石" transform="translate(0.000000, 1.000000)">
                        <rect id="Rectangle" fill="#000000" opacity="0" x="0" y="0" width="19.9804878" height="20"></rect>
                        <path d="M10.0067381,19.4568546 C9.76346369,19.4568662 9.53196216,19.3520309 9.37136053,19.1691244 L0.224997229,8.74987652 C-0.00579121705,8.48688153 -0.0511692126,8.10886695 0.110806907,7.79863119 L3.60446702,1.11028012 C3.75035722,0.830974023 4.03916396,0.65590051 4.35403489,0.65589502 L15.6595822,0.65589502 C15.9744443,0.655932313 16.2632358,0.830996628 16.4091501,1.11028012 L19.9026692,7.79863119 C20.0646655,8.1088368 20.0192248,8.48685019 19.7883379,8.74973541 L10.6419746,19.1688422 C10.4815579,19.3519525 10.2500435,19.4569198 10.0067381,19.4568546 Z M1.87892431,8.06858111 L10.0067381,17.3274536 L18.1346928,8.06858111 L15.1474174,2.34939674 L4.86619967,2.34939674 L1.87892431,8.06858111 Z M10.0067381,14.3842517 C9.76739425,14.3842634 9.53924564,14.2827935 9.37883223,14.1049884 L4.00920829,8.15169689 C3.70308359,7.80376973 3.7333802,7.2741197 4.07717792,6.96344152 C4.42097563,6.65276334 4.95044142,6.67657532 5.26501996,7.01686305 L10.0067381,12.2740422 L14.7484562,7.01686305 C15.0615262,6.66978055 15.596411,6.6424558 15.9431549,6.95583151 C16.2898987,7.26920723 16.3171968,7.8046144 16.0041268,8.15169689 L10.6346439,14.1048472 C10.4742877,14.2827487 10.246115,14.3842806 10.0067381,14.3842517 Z" id="Combined-Shape" fill="#458CDA" fill-rule="nonzero"></path>
                    </g>
                </g>
            </g>
        </g>
    </g>
</svg>