<?xml version="1.0" encoding="UTF-8"?>
<svg width="62px" height="62px" viewBox="0 0 62 62" version="1.1" xmlns="http://www.w3.org/2000/svg" xmlns:xlink="http://www.w3.org/1999/xlink">
    <!-- Generator: Sketch 52.5 (67469) - http://www.bohemiancoding.com/sketch -->
    <title>Group 5@2x</title>
    <desc>Created with Sketch.</desc>
    <defs>
        <linearGradient x1="50%" y1="0%" x2="50%" y2="100%" id="linearGradient-1">
            <stop stop-color="#3594F2" offset="0%"></stop>
            <stop stop-color="#93DCF7" offset="100%"></stop>
        </linearGradient>
    </defs>
    <g id="钉钉调整页面" stroke="none" stroke-width="1" fill="none" fill-rule="evenodd">
        <g id="日程-领取权益2" transform="translate(-176.000000, -97.000000)">
            <g id="Group-5" transform="translate(177.000000, 98.000000)">
                <circle id="Oval" stroke="#55A8FD" fill-rule="nonzero" cx="30" cy="30" r="30"></circle>
                <g id="Group-6-" transform="translate(12.000000, 8.000000)">
                    <g id="Group-Copy">
                        <path d="M17.9040862,38.8875073 C5.96802873,31.3258084 0,24.2782343 0,17.7447849 C0,7.94461081 8.08556731,0 17.9040862,0 C27.7226051,0 35.8081724,7.94461081 35.8081724,17.7447849 C35.8081724,24.2782343 29.8401436,31.3258084 17.9040862,38.8875073 Z M17.7013995,25.6692987 C21.9882934,22.9529603 24.1317403,20.4213075 24.1317403,18.0743402 C24.1317403,14.5538893 21.227769,11.7 17.7013995,11.7 C14.17503,11.7 11.2710587,14.5538893 11.2710587,18.0743402 C11.2710587,20.4213075 13.4145056,22.9529603 17.7013995,25.6692987 Z" id="Combined-Shape" fill="url(#linearGradient-1)"></path>
                        <ellipse id="Oval-2" fill="#93DCF7" cx="17.9040862" cy="42.6629935" rx="2.26953205" ry="2.26529169"></ellipse>
                    </g>
                    <path d="M17.7662338,28.125 C12.1558442,24.5702001 9.35064935,21.2570933 9.35064935,18.1856796 C9.35064935,13.5785591 13.1511658,9.84375 17.7662338,9.84375 C22.3813017,9.84375 26.1818182,13.5785591 26.1818182,18.1856796 C26.1818182,21.2570933 23.3766234,24.5702001 17.7662338,28.125 Z M17.7776191,25.5334192 C22.0482141,22.8307973 24.1835117,20.3119285 24.1835117,17.9768126 C24.1835117,14.4741388 21.2905812,11.6346606 17.7776191,11.6346606 C14.2646569,11.6346606 11.3717264,14.4741388 11.3717264,17.9768126 C11.3717264,20.3119285 13.507024,22.8307973 17.7776191,25.5334192 Z" id="Combined-Shape" fill="#FFFFFF" opacity="0.8"></path>
                </g>
            </g>
        </g>
    </g>
</svg>