<?xml version="1.0" encoding="UTF-8"?>
<svg width="40px" height="54px" viewBox="0 0 40 54" version="1.1" xmlns="http://www.w3.org/2000/svg" xmlns:xlink="http://www.w3.org/1999/xlink">
    <!-- Generator: Sketch 52.5 (67469) - http://www.bohemiancoding.com/sketch -->
    <title>Group 6 Copy 5@2x</title>
    <desc>Created with Sketch.</desc>
    <g id="Page-1" stroke="none" stroke-width="1" fill="none" fill-rule="evenodd">
        <g id="日程-领取权益2-copy" transform="translate(-187.000000, -107.000000)">
            <g id="Group-6-Copy-5" transform="translate(187.000000, 107.000000)">
                <g id="Group-6-Copy-2">
                    <g id="Group-5" transform="translate(0.000000, 0.303435)">
                        <path d="M19.8759822,0 L39.7519644,11.7390603 L39.7519644,35.2171808 C33.126637,43.6616976 26.5013096,47.883956 19.8759822,47.883956 C13.2506548,47.883956 6.6253274,43.6616976 1.26883945e-14,35.2171808 L0,11.7390603 L19.8759822,0 Z" id="Polygon-2" fill="#EFBE00"></path>
                        <path d="M5.32907052e-15,35.4713149 L5.32907052e-15,24.2556597 L39.8053553,24.2556597 L39.7519644,35.4713149 C37.7348306,38.3653175 35.6847405,40.7289219 33.6016939,42.5621281 C31.5186474,44.3953343 28.5904355,45.9849544 24.8170582,47.3309885 C23.4643012,48.0516713 22.5678892,48.5947317 22.1278221,48.9601698 C21.687755,49.3256079 20.9371417,50.8455954 19.8759822,53.5201323 C19.053403,50.9233876 18.3787153,49.4034001 17.8519189,48.9601698 C17.3251225,48.5169395 16.3742296,47.973879 14.9992403,47.3309885 C11.4033525,45.9852386 8.3883614,44.2715994 5.95426697,42.1900709 C3.52017254,40.1085424 1.53541688,37.8689571 5.32907052e-15,35.4713149 Z" id="Path-3-Copy-3" fill="#010000"></path>
                    </g>
                </g>
            </g>
        </g>
    </g>
</svg>